<svg xmlns="http://www.w3.org/2000/svg" width="30" height="30" viewBox="0 0 30 30" fill="none"><path d="M26.8752 15C26.8752 21.5584 21.5586 26.875 15.0002 26.875C19.4599 26.875 23.0752 23.2597 23.0752 18.8C23.0752 14.3403 19.4599 10.725 15.0002 10.725C10.5405 10.725 6.92524 14.3403 6.92524 18.8C6.92524 23.2597 10.5405 26.875 15.0002 26.875C8.44186 26.875 3.12524 21.5584 3.12524 15C3.12524 8.44162 8.44186 3.125 15.0002 3.125C21.5586 3.125 26.8752 8.44162 26.8752 15Z" fill="#111111"></path><path d="M15.0002 26.875C11.8522 26.875 9.30024 24.323 9.30024 21.175C9.30024 18.027 11.8522 15.475 15.0002 15.475C18.1483 15.475 20.7002 18.027 20.7002 21.175C20.7002 24.323 18.1483 26.875 15.0002 26.875Z" fill="#111111"></path></svg>