<svg xmlns="http://www.w3.org/2000/svg" xmlns:xlink="http://www.w3.org/1999/xlink" id="splitsvg" width="1380" height="356"><g id="svgg"><path id="path0" d=" M -25 0 L -5 0 L -5 20 L -25 20 Z M 405 0 L 425 0 L 425 20 L 405 20 Z" stroke="none" fill="#fcfcfc" fill-rule="evenodd" transform="translate(30,0)"></path><path id="path1" d=" M -25 0 L -5 0 L -5 20 L -25 20 Z M 405 0 L 425 0 L 425 20 L 405 20 Z" stroke="none" fill="#100fcfc" fill-rule="evenodd" transform="translate(490,0)"></path><path id="path2" d=" M -25 0 L -5 0 L -5 20 L -25 20 Z M 405 0 L 425 0 L 425 20 L 405 20 Z" stroke="none" fill="#100fcfc" fill-rule="evenodd" transform="translate(950,0)"></path><path id="path3" d=" M -25 0 L -5 0 L -5 20 L -25 20 Z M 405 0 L 425 0 L 425 20 L 405 20 Z" stroke="none" fill="#100fcfc" fill-rule="evenodd" transform="translate(30,208)"></path><path id="path4" d=" M -25 0 L -5 0 L -5 20 L -25 20 Z M 405 0 L 425 0 L 425 20 L 405 20 Z" stroke="none" fill="#100fcfc" fill-rule="evenodd" transform="translate(490,208)"></path></g></svg>