<svg xmlns="http://www.w3.org/2000/svg" width="20" height="20" viewBox="0 0 20 20" fill="none"><path d="M9.99858 7.00281C9.20293 7.00281 8.43987 7.31888 7.87726 7.88149C7.31465 8.4441 6.99858 9.20716 6.99858 10.0028C6.99858 10.7985 7.31465 11.5615 7.87726 12.1241C8.43987 12.6867 9.20293 13.0028 9.99858 13.0028C10.7942 13.0028 11.5573 12.6867 12.1199 12.1241C12.6825 11.5615 12.9986 10.7985 12.9986 10.0028C12.9986 9.20716 12.6825 8.4441 12.1199 7.88149C11.5573 7.31888 10.7942 7.00281 9.99858 7.00281ZM9.99858 5.00281C11.3247 5.00281 12.5964 5.52959 13.5341 6.46727C14.4718 7.40496 14.9986 8.67673 14.9986 10.0028C14.9986 11.3289 14.4718 12.6007 13.5341 13.5383C12.5964 14.476 11.3247 15.0028 9.99858 15.0028C8.6725 15.0028 7.40073 14.476 6.46305 13.5383C5.52537 12.6007 4.99858 11.3289 4.99858 10.0028C4.99858 8.67673 5.52537 7.40496 6.46305 6.46727C7.40073 5.52959 8.6725 5.00281 9.99858 5.00281ZM16.4986 4.75281C16.4986 5.08433 16.3669 5.40227 16.1325 5.63669C15.898 5.87111 15.5801 6.00281 15.2486 6.00281C14.9171 6.00281 14.5991 5.87111 14.3647 5.63669C14.1303 5.40227 13.9986 5.08433 13.9986 4.75281C13.9986 4.42129 14.1303 4.10334 14.3647 3.86892C14.5991 3.6345 14.9171 3.50281 15.2486 3.50281C15.5801 3.50281 15.898 3.6345 16.1325 3.86892C16.3669 4.10334 16.4986 4.42129 16.4986 4.75281ZM9.99858 2.00281C7.52458 2.00281 7.12058 2.00981 5.96958 2.06081C5.18558 2.09781 4.65958 2.20281 4.17158 2.39281C3.7632 2.54275 3.39399 2.78307 3.09158 3.09581C2.77859 3.39821 2.53793 3.76739 2.38758 4.17581C2.19758 4.66581 2.09258 5.19081 2.05658 5.97381C2.00458 7.07781 1.99758 7.46381 1.99758 10.0028C1.99758 12.4778 2.00458 12.8808 2.05558 14.0318C2.09258 14.8148 2.19758 15.3418 2.38658 15.8288C2.55658 16.2638 2.75658 16.5768 3.08858 16.9088C3.42558 17.2448 3.73858 17.4458 4.16858 17.6118C4.66258 17.8028 5.18858 17.9088 5.96858 17.9448C7.07258 17.9968 7.45858 18.0028 9.99758 18.0028C12.4726 18.0028 12.8756 17.9958 14.0266 17.9448C14.8086 17.9078 15.3346 17.8028 15.8236 17.6138C16.2316 17.4631 16.6006 17.2229 16.9036 16.9108C17.2406 16.5748 17.4416 16.2618 17.6076 15.8308C17.7976 15.3388 17.9036 14.8128 17.9396 14.0308C17.9916 12.9278 17.9976 12.5408 17.9976 10.0028C17.9976 7.52881 17.9906 7.12481 17.9396 5.97381C17.9026 5.19181 17.7966 4.66381 17.6076 4.17581C17.4568 3.76782 17.2166 3.39879 16.9046 3.09581C16.6023 2.78265 16.2331 2.54197 15.8246 2.39181C15.3346 2.20181 14.8086 2.09681 14.0266 2.06081C12.9236 2.00881 12.5386 2.00281 9.99858 2.00281ZM9.99858 0.00280762C12.7156 0.00280762 13.0546 0.0128076 14.1216 0.0628076C15.1856 0.112808 15.9116 0.279808 16.5486 0.527808C17.2086 0.781808 17.7646 1.12581 18.3206 1.68081C18.8291 2.1807 19.2225 2.7854 19.4736 3.45281C19.7206 4.08981 19.8886 4.81581 19.9386 5.88081C19.9856 6.94681 19.9986 7.28581 19.9986 10.0028C19.9986 12.7198 19.9886 13.0588 19.9386 14.1248C19.8886 15.1898 19.7206 15.9148 19.4736 16.5528C19.2232 17.2206 18.8297 17.8254 18.3206 18.3248C17.8205 18.8331 17.2159 19.2266 16.5486 19.4778C15.9116 19.7248 15.1856 19.8928 14.1216 19.9428C13.0546 19.9898 12.7156 20.0028 9.99858 20.0028C7.28158 20.0028 6.94258 19.9928 5.87558 19.9428C4.81158 19.8928 4.08658 19.7248 3.44858 19.4778C2.78091 19.2273 2.17611 18.8338 1.67658 18.3248C1.16801 17.825 0.774541 17.2203 0.523581 16.5528C0.275581 15.9158 0.108581 15.1898 0.0585811 14.1248C0.0105811 13.0588 -0.00141907 12.7198 -0.00141907 10.0028C-0.00141907 7.28581 0.00858111 6.94681 0.0585811 5.88081C0.108581 4.81481 0.275581 4.09081 0.523581 3.45281C0.773817 2.78499 1.16738 2.18013 1.67658 1.68081C2.17625 1.17204 2.78101 0.778537 3.44858 0.527808C4.08558 0.279808 4.81058 0.112808 5.87558 0.0628076C6.94258 0.0158076 7.28158 0.00280762 9.99858 0.00280762Z" fill="#03060A"></path></svg>