<svg xmlns="http://www.w3.org/2000/svg" width="20" height="20" viewBox="0 0 20 20" fill="none"><path d="M19.9576 11.7214V19.1004H15.6796V12.2154C15.6796 10.4854 15.0606 9.30544 13.5126 9.30544C12.3306 9.30544 11.6266 10.1014 11.3176 10.8704C11.2046 11.1454 11.1756 11.5284 11.1756 11.9134V19.1004H6.89558C6.89558 19.1004 6.95358 7.44044 6.89558 6.23144H11.1756V8.05544L11.1476 8.09744H11.1756V8.05544C11.7436 7.18044 12.7586 5.92944 15.0316 5.92944C17.8466 5.92944 19.9576 7.76944 19.9576 11.7214ZM2.41958 0.0284424C0.956581 0.0284424 -0.00141907 0.988443 -0.00141907 2.25144C-0.00141907 3.48644 0.928581 4.47544 2.36358 4.47544H2.39158C3.88458 4.47544 4.81158 3.48644 4.81158 2.25144C4.78558 0.988443 3.88458 0.0284424 2.41958 0.0284424ZM0.252581 19.1004H4.53058V6.23144H0.252581V19.1004Z" fill="#032530"></path></svg>