<svg xmlns="http://www.w3.org/2000/svg" width="44" height="44" viewBox="0 0 44 44" fill="none"><path d="M23.4814 15.1148C23.4814 16.7281 23.9031 18.0829 24.7464 19.1793C25.3441 19.9346 26.155 20.4308 27.1793 20.6679C28.1876 20.9026 29.1409 20.9191 30.0026 20.7193C30.2959 22.4609 29.8193 24.3053 28.6093 26.2596C27.3968 28.2127 25.8336 29.6812 23.9196 30.6651L26.8181 34.8359C28.2848 34.1099 29.6781 33.1896 30.9614 32.0768C32.2631 30.9639 33.4181 29.6843 34.4448 28.2378C35.4714 26.7913 36.2414 25.1578 36.7364 23.3061C37.2314 21.4544 37.3689 19.5661 37.1324 17.6228C36.8244 15.0561 35.9958 13.0028 34.6464 11.4811C33.2983 9.93988 31.619 9.16927 29.6084 9.16927C27.8393 9.16927 26.3708 9.70094 25.2084 10.7789C24.0583 11.8349 23.4839 13.282 23.4851 15.1203L23.4814 15.1148ZM6.7541 15.1148C6.7541 16.7281 7.17576 18.0829 8.01909 19.1793C8.61798 19.9493 9.42893 20.4485 10.4519 20.6771C11.4786 20.9032 12.4197 20.9167 13.2753 20.7174C13.5686 22.4408 13.1103 24.2924 11.8966 26.2541C10.6866 28.1974 9.1246 29.6641 7.2106 30.6541L10.1018 34.8359C11.5697 34.1099 12.9508 33.1902 14.2451 32.0768C15.5585 30.9473 16.725 29.6576 17.7174 28.2378C18.7368 26.7894 19.4958 25.1578 19.9908 23.3061C20.4936 21.4559 20.6287 19.525 20.3886 17.6228C20.0843 15.0561 19.2593 13.0028 17.9136 11.4811C16.5691 9.95088 14.8929 9.18577 12.8848 9.18577C11.1125 9.18333 9.64465 9.71927 8.48109 10.7936C7.33098 11.8496 6.75532 13.2967 6.7541 15.1349V15.1148Z" fill="white"></path></svg>